<?xml version="1.0" encoding="utf-8"?>
<!-- Generator: Adobe Illustrator 15.0.0, SVG Export Plug-In . SVG Version: 6.00 Build 0)  -->
<!DOCTYPE svg PUBLIC "-//W3C//DTD SVG 1.1//EN" "http://www.w3.org/Graphics/SVG/1.1/DTD/svg11.dtd">
<svg version="1.1" id="Calque_1" xmlns="http://www.w3.org/2000/svg" xmlns:xlink="http://www.w3.org/1999/xlink" x="0px" y="0px"
	 width="850.39px" height="850.39px" viewBox="0 0 850.39 850.39" enable-background="new 0 0 850.39 850.39" xml:space="preserve">
<ellipse fill="#DB3939" cx="425.195" cy="426.195" rx="425.195" ry="424.195"/>
<path fill="#EFEEEE" d="M422.373,152.876c-149.247,0-270.569,119.552-274.227,268.402H65.649l123.492,137.641L312.62,421.278
	h-95.866c3.62-110.838,94.26-199.583,205.618-199.583c113.667,0,205.802,92.434,205.802,206.458
	c0,114.021-92.135,206.458-205.802,206.458c-45.582,0-87.68-14.894-121.771-40.057l-47.195,50.493
	c46.588,36.567,105.238,58.382,168.966,58.382c151.552,0,274.397-123.241,274.397-275.276
	C696.77,276.112,573.924,152.876,422.373,152.876z M397.982,280.443v157.446l100.894,100.875l33.23-33.229l-87.112-87.12V280.443
	H397.982z"/>
</svg>
